#N canvas 321 390 450 458 12;
#X obj 40 150 loadbang;
#X text 40 20 The band: 2 raptors with presets and MIDI channels;
#X msg 40 340 \; pizz vis 1;
#X text 40 310 open the first raptor window;
#N canvas 891 381 450 300 setup 0;
#X obj 20 20 inlet;
#X text 30 50 set up panning for the two voices;
#X msg 20 110 50;
#X msg 60 110 80;
#X obj 20 80 t b b;
#X floatatom 20 139 5 0 127 0 - - -, f 5;
#X floatatom 60 139 5 0 127 0 - - -, f 5;
#X msg 20 180 ctl \$1 8 1;
#X msg 20 203 ctl \$1 8 2;
#X obj 20 239 outlet;
#X connect 0 0 4 0;
#X connect 2 0 5 0;
#X connect 3 0 6 0;
#X connect 4 0 2 0;
#X connect 4 1 3 0;
#X connect 5 0 7 0;
#X connect 6 0 8 0;
#X connect 7 0 9 0;
#X connect 8 0 9 0;
#X restore 40 280 pd setup;
#X obj 40 400 s all-arp;
#X text 40 180 set meter and tempo \, enable latch;
#X text 40 120 here we set up a few things;
#X text 40 250 MIDI setup \, click the subpatch to view;
#X obj 40 50 raptor7 pizz 1;
#X obj 40 80 raptor7 weirdmod 2;
#X msg 40 210 meter 11 8 \, tempo 132 \, latch 1;
#X connect 0 0 2 0;
#X connect 0 0 4 0;
#X connect 0 0 11 0;
#X connect 4 0 5 0;
#X connect 11 0 5 0;
