#N canvas 650 257 531 684 10;
#X obj 94 200 route note ctl;
#X obj 64 80 r \$1-arp-config;
#X obj 64 105 route launchcontrol;
#X obj 64 130 t f f;
#X obj 64 155 == 0;
#X obj 20 180 spigot 1;
#X obj 127 155 == 1;
#X obj 94 180 spigot;
#X obj 20 130 t a a;
#X obj 94 250 route 9;
#X msg 94 225 \$3 \$1 \$2;
#X obj 94 300 > 0;
#X msg 130 430 note \$2 \$3 \$1;
#X obj 200 105 tgl 15 0 empty empty empty 17 7 0 10 #fcfcfc #000000
#000000 0 1;
#X obj 20 20 inlet;
#X obj 20 480 outlet;
#X text 200 70 you can enable this in raptor.pd_lua \, or check the
toggle below, f 46;
#X obj 20 350 spigot 1;
#X obj 94 325 == 0;
#X text 250 210 pass through anything that's not a note or cc message
on channel 9, f 34;
#X text 130 300 device hold pressed?;
#X msg 160 225 ctl \$1 \$2 \$3;
#N canvas 735 442 450 393 ccmaster-set 0;
#X obj 20 70 spigot;
#X obj 20 95 unpack f f;
#X obj 77 120 > 0;
#X obj 20 150 spigot;
#X obj 20 235 sel 73 74 75 76 89 90 91 92;
#X msg 20 260 1;
#X msg 50 260 2;
#X msg 80 260 3;
#X msg 110 260 4;
#X msg 140 260 5;
#X msg 170 260 6;
#X msg 200 260 7;
#X msg 230 260 8;
#X msg 20 285 ccmaster_set \$1;
#X text 105 120 button pressed?;
#X text 205 235 buttons 1-8;
#X text 65 70 filter out if not device hold;
#X obj 20 20 inlet;
#X obj 70 20 inlet;
#X obj 20 360 outlet;
#X connect 0 0 1 0;
#X connect 1 0 3 0;
#X connect 1 1 2 0;
#X connect 2 0 3 1;
#X connect 3 0 4 0;
#X connect 4 0 5 0;
#X connect 4 1 6 0;
#X connect 4 2 7 0;
#X connect 4 3 8 0;
#X connect 4 4 9 0;
#X connect 4 5 10 0;
#X connect 4 6 11 0;
#X connect 4 7 12 0;
#X connect 5 0 13 0;
#X connect 6 0 13 0;
#X connect 7 0 13 0;
#X connect 8 0 13 0;
#X connect 9 0 13 0;
#X connect 10 0 13 0;
#X connect 11 0 13 0;
#X connect 12 0 13 0;
#X connect 13 0 19 0;
#X connect 17 0 0 0;
#X connect 18 0 0 1;
#X restore 130 370 pd ccmaster-set;
#N canvas 946 337 450 429 ccmaster-next-prev 0;
#X obj 20 95 route 9;
#X obj 20 185 spigot;
#X msg 20 315 ccmaster_prev;
#X msg 110 315 ccmaster_next;
#X msg 20 70 \$3 \$2 \$1;
#X obj 20 120 route 106 107;
#X msg 20 145 0 \$1;
#X msg 60 145 1 \$1;
#X obj 20 210 unpack f f;
#X obj 77 235 > 0;
#X obj 20 265 spigot;
#X obj 20 290 sel 0 1;
#X text 76 185 filter out if not device hold;
#X text 106 120 106 = left 107 = right;
#X text 76 290 left/right buttons;
#X text 106 235 button pressed?;
#X obj 20 20 inlet;
#X obj 70 20 inlet;
#X obj 20 389 outlet;
#X connect 0 0 5 0;
#X connect 1 0 8 0;
#X connect 2 0 18 0;
#X connect 3 0 18 0;
#X connect 4 0 0 0;
#X connect 5 0 6 0;
#X connect 5 1 7 0;
#X connect 6 0 1 0;
#X connect 7 0 1 0;
#X connect 8 0 10 0;
#X connect 8 1 9 0;
#X connect 9 0 10 1;
#X connect 10 0 11 0;
#X connect 11 0 2 0;
#X connect 11 1 3 0;
#X connect 16 0 4 0;
#X connect 17 0 1 1;
#X restore 130 400 pd ccmaster-next-prev;
#X obj 290 420 > 0;
#X text 290 390 mute;
#X obj 360 420 > 0;
#X text 360 390 solo;
#X obj 430 420 > 0;
#X text 430 390 rec arm;
#X obj 290 470 s \$1-mute;
#X obj 430 470 s \$1-bypass;
#X obj 360 470 s \$1-latch;
#X obj 335 160 tgl 15 0 empty empty empty 17 7 0 10 #fcfcfc #000000
#000000 0 1;
#N canvas 294 535 450 300 ccmaster 0;
#X obj 20 50 r all-arp;
#X obj 20 75 route ccmaster;
#X obj 20 100 unpack f f;
#X obj 20 210 outlet;
#X obj 20 125 expr $f1==0 || $f2==$f3;
#X obj 155 50 loadbang;
#X obj 155 75 f \$0;
#X connect 0 0 1 0;
#X connect 1 0 2 0;
#X connect 2 0 4 0;
#X connect 2 1 4 1;
#X connect 4 0 3 0;
#X connect 5 0 6 0;
#X connect 6 0 4 2;
#X restore 335 130 pd ccmaster;
#X text 100 10 Novation LaunchControl XL support -- this assumes factory
preset #1 on MIDI channel 9 \, and binds the device select and bank
buttons to ccmaster_next \, ccmaster_prev \, and ccmaster_set \, and
the mute \, solo \, rec arm buttons to mute \, latch \, and bypass
, f 63;
#X msg 290 620 load;
#X msg 360 620 save;
#X obj 430 620 s \$1-loop;
#N canvas 946 337 450 429 loop-next-prev 0;
#X obj 20 95 route 9;
#X obj 20 185 spigot;
#X msg 20 70 \$3 \$2 \$1;
#X msg 20 145 0 \$1;
#X msg 60 145 1 \$1;
#X obj 20 210 unpack f f;
#X obj 77 235 > 0;
#X obj 20 265 spigot;
#X obj 20 290 sel 0 1;
#X text 76 185 filter out if not device hold;
#X text 106 235 button pressed?;
#X obj 20 20 inlet;
#X obj 70 20 inlet;
#X obj 20 389 outlet;
#X obj 20 120 route 104 105;
#X text 106 120 104 = up 105 = down;
#X text 76 290 up/down buttons;
#X msg 20 315 next;
#X msg 110 315 prev;
#X connect 0 0 14 0;
#X connect 1 0 5 0;
#X connect 2 0 0 0;
#X connect 3 0 1 0;
#X connect 4 0 1 0;
#X connect 5 0 7 0;
#X connect 5 1 6 0;
#X connect 6 0 7 1;
#X connect 7 0 8 0;
#X connect 8 0 17 0;
#X connect 8 1 18 0;
#X connect 11 0 2 0;
#X connect 12 0 1 1;
#X connect 14 0 3 0;
#X connect 14 1 4 0;
#X connect 17 0 13 0;
#X connect 18 0 13 0;
#X restore 130 470 pd loop-next-prev;
#X obj 290 650 s \$1-looper-remote;
#X obj 94 275 route 105;
#X obj 290 350 route 106 107 108;
#X obj 290 445 sel 1;
#X obj 360 445 sel 1;
#X obj 430 445 sel 1;
#X obj 290 295 spigot 1;
#X obj 290 320 route 0 1;
#X obj 290 570 > 0;
#X text 290 540 mute;
#X obj 360 570 > 0;
#X text 360 540 solo;
#X obj 430 570 > 0;
#X text 430 540 rec arm;
#X obj 290 500 route 106 107 108;
#X obj 290 595 sel 1;
#X obj 360 595 sel 1;
#X obj 430 595 sel 1;
#X text 410 350 unshifted;
#X text 410 500 shifted;
#X obj 290 270 list prepend 0;
#X connect 0 0 10 0;
#X connect 0 1 21 0;
#X connect 0 1 23 0;
#X connect 0 1 39 0;
#X connect 0 2 15 0;
#X connect 1 0 2 0;
#X connect 2 0 3 0;
#X connect 3 0 4 0;
#X connect 3 1 6 0;
#X connect 4 0 5 1;
#X connect 5 0 15 0;
#X connect 6 0 7 1;
#X connect 7 0 0 0;
#X connect 8 0 5 0;
#X connect 8 1 7 0;
#X connect 9 0 41 0;
#X connect 9 1 12 0;
#X connect 10 0 9 0;
#X connect 11 0 18 0;
#X connect 11 0 23 1;
#X connect 11 0 22 1;
#X connect 11 0 39 1;
#X connect 11 0 60 1;
#X connect 12 0 15 0;
#X connect 13 0 3 0;
#X connect 14 0 8 0;
#X connect 17 0 15 0;
#X connect 18 0 17 1;
#X connect 21 0 17 0;
#X connect 22 0 15 0;
#X connect 23 0 15 0;
#X connect 24 0 43 0;
#X connect 26 0 44 0;
#X connect 28 0 45 0;
#X connect 33 0 46 1;
#X connect 34 0 33 0;
#X connect 36 0 40 0;
#X connect 37 0 40 0;
#X connect 39 0 40 0;
#X connect 41 0 11 0;
#X connect 41 1 60 0;
#X connect 42 0 24 0;
#X connect 42 1 26 0;
#X connect 42 2 28 0;
#X connect 43 0 30 0;
#X connect 44 0 32 0;
#X connect 45 0 31 0;
#X connect 46 0 47 0;
#X connect 47 0 42 0;
#X connect 47 1 54 0;
#X connect 48 0 55 0;
#X connect 50 0 56 0;
#X connect 52 0 57 0;
#X connect 54 0 48 0;
#X connect 54 1 50 0;
#X connect 54 2 52 0;
#X connect 55 0 36 0;
#X connect 56 0 37 0;
#X connect 57 0 38 0;
#X connect 60 0 46 0;
