#N canvas 631 206 421 278 12;
#X obj 103 59 netreceive 4711 1;
#X obj 87 25 inlet;
#X obj 87 102 list split 1;
#X obj 150 180 list trim;
#X obj 100 200 s;
#X obj 150 150 list;
#X obj 87 131 t b s;
#X obj 230 100 r pdluax;
#X obj 230 129 route reload;
#X obj 230 158 bng 15 250 50 0 empty empty empty 17 7 0 10 #fcfcfc
#000000 #000000;
#X msg 230 212 reload;
#X obj 230 241 s __raptor;
#X obj 230 182 delay 100;
#X connect 0 0 2 0;
#X connect 1 0 2 0;
#X connect 2 0 6 0;
#X connect 2 1 5 1;
#X connect 3 0 4 0;
#X connect 5 0 3 0;
#X connect 6 0 5 0;
#X connect 6 1 4 1;
#X connect 7 0 8 0;
#X connect 8 0 9 0;
#X connect 9 0 12 0;
#X connect 10 0 11 0;
#X connect 12 0 10 0;
#X coords 0 0 1 1 124 24 0;
