#N canvas 1080 156 551 836 10;
#X obj 160 318 cnv 15 81 30 empty empty empty 20 12 0 14 #e0e0e0 #404040
0;
#X obj 39 48 cnv 15 70 161 empty empty empty 20 12 0 14 #e0e0e0 #404040
0;
#X obj 39 232 cnv 15 70 113 empty empty empty 20 12 0 14 #e0e0e0 #404040
0;
#X floatatom 117 52 6 0 127 2 minvel #1-minvel -, f 6;
#X msg 117 462 minvel \$1;
#X floatatom 164 52 6 0 127 2 maxvel #1-maxvel -, f 6;
#X msg 164 462 maxvel \$1;
#X obj 214 54 hsl 64 15 -1 1 0 0 empty \$1-velmod velmod -3 -12 0 10
#fcfcfc #000000 #000000 6300 1;
#X msg 214 462 velmod \$1;
#X msg 323 54 1;
#X obj 286 54 bng 15 250 50 0 empty empty empty 17 7 0 10 #fcfcfc #000000
#000000;
#X obj 214 88 hsl 64 15 -1 1 0 0 empty \$1-pmod pmod -3 -12 0 10 #fcfcfc
#000000 #000000 3150 1;
#X msg 323 88 0;
#X floatatom 117 88 6 0 1 2 pmin #1-pmin -, f 6;
#X floatatom 164 88 6 0 1 2 pmax #1-pmax -, f 6;
#X msg 117 491 pmin \$1;
#X msg 164 491 pmax \$1;
#X msg 214 491 pmod \$1;
#X obj 286 88 bng 15 250 50 0 empty empty empty 17 7 0 10 #fcfcfc #000000
#000000;
#X obj 117 157 hsl 64 15 0 1 0 0 empty \$1-gate gate -1 -12 0 10 #fcfcfc
#000000 #000000 6300 1;
#X msg 117 551 gate \$1;
#X obj 214 157 hsl 64 15 -1 1 0 0 empty \$1-gatemod gatemod -2 -12
0 10 #fcfcfc #000000 #000000 3150 1;
#X msg 323 157 0;
#X msg 214 551 gatemod \$1;
#X obj 286 157 bng 15 250 50 0 empty empty empty 17 7 0 10 #fcfcfc
#000000 #000000;
#X obj 258 22 tgl 15 0 empty \$1-latch L -10 6 0 10 #3cc840 #000000
#000000 0 1;
#X floatatom 164 20 4 1 128 0 pgm #1-pgm -, f 4;
#X msg 164 751 pgm \$1;
#X obj 214 191 hsl 64 15 -1 1 0 0 empty \$1-hmod hmod -3 -12 0 10 #fcfcfc
#000000 #000000 3150 1;
#X msg 323 191 0;
#X floatatom 117 191 6 0 1 2 hmin #1-hmin -, f 6;
#X floatatom 164 191 6 0 1 2 hmax #1-hmax -, f 6;
#X obj 286 191 bng 15 250 50 0 empty empty empty 17 7 0 10 #fcfcfc
#000000 #000000;
#X obj 214 226 hsl 64 15 -1 1 0 0 empty \$1-prefmod prefmod -3 -12
0 10 #fcfcfc #000000 #000000 3150 1;
#X msg 323 226 0;
#X floatatom 164 226 6 -1 1 2 pref #1-pref -, f 6;
#X obj 286 226 bng 15 250 50 0 empty empty empty 17 7 0 10 #fcfcfc
#000000 #000000;
#X obj 214 261 hsl 64 15 -1 1 0 0 empty \$1-smod smod -3 -12 0 10 #fcfcfc
#000000 #000000 3150 1;
#X msg 323 261 0;
#X floatatom 117 261 6 -127 127 2 smin #1-smin -, f 6;
#X floatatom 164 261 6 -127 127 2 smax #1-smax -, f 6;
#X obj 286 261 bng 15 250 50 0 empty empty empty 17 7 0 10 #fcfcfc
#000000 #000000;
#X obj 214 297 hsl 64 15 -1 1 0 0 empty \$1-nmod nmod -3 -12 0 10 #fcfcfc
#000000 #000000 3150 1;
#X msg 323 297 0;
#X floatatom 164 297 6 0 10 2 nmax #1-nmax -, f 6;
#X obj 286 297 bng 15 250 50 0 empty empty empty 17 7 0 10 #fcfcfc
#000000 #000000;
#X obj 117 297 tgl 15 0 empty \$1-uniq uniq -1 -10 0 10 #fcfcfc #000000
#000000 1 1;
#X msg 117 581 hmin \$1;
#X msg 164 551 hmax \$1;
#X msg 214 581 hmod \$1;
#X msg 164 581 pref \$1;
#X msg 214 611 prefmod \$1;
#X msg 117 641 smin \$1;
#X msg 164 611 smax \$1;
#X msg 214 641 smod \$1;
#X msg 117 671 uniq \$1;
#X msg 164 641 nmax \$1;
#X msg 214 671 nmod \$1;
#X obj 43 62 vradio 15 0 0 5 empty \$1-downval dn 0 -8 0 10 #fcfcfc
#000000 #000000 3;
#X obj 62 62 vradio 15 0 0 5 empty \$1-upval up 0 -8 0 10 #fcfcfc #000000
#000000 1;
#N canvas 497 416 590 404 octave 0;
#X obj 20 20 inlet;
#X obj 20 100 t b f;
#X obj 20 150 min;
#X obj 20 175 change;
#X obj 300 20 inlet;
#X obj 300 100 t b f;
#X obj 300 175 change;
#X obj 300 150 max;
#X floatatom 80 175 5 0 0 0 - - -, f 5;
#X floatatom 370 175 5 0 0 0 - - -, f 5;
#X obj 20 45 t f f f;
#X obj 300 45 t f f f;
#X msg 90 125 down \$1;
#X msg 390 125 up \$1;
#X obj 20 200 s \$1-upval;
#X obj 190 200 s \$1-arp;
#X obj 300 200 s \$1-downval;
#X obj 90 100 expr 2-$f1;
#X obj 390 100 expr 2-$f1;
#X obj 70 360 s \$1-downval;
#X obj 70 250 r \$1-down;
#X obj 70 300 expr max(0 \, min(4 \, 2-$f1));
#X obj 70 275 route set;
#X obj 121 325 expr max(0 \, min(4 \, 2-$f1));
#X msg 70 325 set \$1;
#X obj 300 300 expr max(0 \, min(4 \, 2-$f1));
#X obj 300 275 route set;
#X obj 351 325 expr max(0 \, min(4 \, 2-$f1));
#X msg 300 325 set \$1;
#X obj 300 250 r \$1-up;
#X obj 300 360 s \$1-upval;
#X obj 39 70 v \$1-downvar;
#X obj 319 70 v \$1-upvar;
#X obj 300 125 v \$1-downvar;
#X obj 20 125 v \$1-upvar;
#X connect 0 0 10 0;
#X connect 1 0 34 0;
#X connect 1 1 2 1;
#X connect 2 0 3 0;
#X connect 2 0 8 0;
#X connect 3 0 14 0;
#X connect 4 0 11 0;
#X connect 5 0 33 0;
#X connect 5 1 7 1;
#X connect 6 0 16 0;
#X connect 7 0 6 0;
#X connect 7 0 9 0;
#X connect 10 0 1 0;
#X connect 10 1 31 0;
#X connect 10 2 17 0;
#X connect 11 0 5 0;
#X connect 11 1 32 0;
#X connect 11 2 18 0;
#X connect 12 0 15 0;
#X connect 13 0 15 0;
#X connect 17 0 12 0;
#X connect 18 0 13 0;
#X connect 20 0 22 0;
#X connect 21 0 24 0;
#X connect 22 0 21 0;
#X connect 22 1 23 0;
#X connect 23 0 19 0;
#X connect 24 0 19 0;
#X connect 25 0 28 0;
#X connect 26 0 25 0;
#X connect 26 1 27 0;
#X connect 27 0 30 0;
#X connect 28 0 30 0;
#X connect 29 0 26 0;
#X connect 33 0 7 0;
#X connect 34 0 2 0;
#X restore 43 461 pd octave;
#X text 83 62 +2;
#X text 83 77 +1;
#X text 89 94 0;
#X text 83 107 -1;
#X text 83 122 -2;
#X obj 43 254 vradio 15 0 0 6 empty \$1-mode empty 0 -8 0 10 #fcfcfc
#000000 #000000 1;
#X text 62 267 up;
#X text 62 282 down;
#X text 62 297 up-down;
#X text 62 312 down-up;
#X text 62 252 random;
#N canvas 740 245 455 434 mode 0;
#X obj 30 20 inlet;
#X obj 90 20 inlet;
#X msg 30 42 mode \$1;
#X obj 90 46 != 0;
#X msg 90 71 raptor \$1;
#X obj 30 100 s \$1-arp;
#X connect 0 0 2 0;
#X connect 1 0 3 0;
#X connect 2 0 5 0;
#X connect 3 0 4 0;
#X connect 4 0 5 0;
#X restore 43 491 pd mode;
#X floatatom 117 20 3 0 128 0 out #1-outchan -, f 3;
#X obj 380 620 s \$1-arp;
#X msg 117 721 outchan \$1;
#X floatatom 73 20 3 0 128 0 in #1-inchan -, f 3;
#X msg 73 751 inchan \$1;
#X obj 43 236 tgl 15 0 empty \$1-raptor raptor 20 6 0 10 #fcfcfc #000000
#000000 0 1;
#X obj 229 22 tgl 15 0 empty \$1-mute M -10 6 0 10 #e8dc1c #000000
#000000 0 1;
#X msg 380 462 mute \$1;
#X floatatom 164 330 6 0 16 2 loop #1-loopsize -, f 6;
#X obj 214 330 tgl 15 0 empty \$1-loop empty -1 -10 0 10 #fcfcfc #000000
#000000 0 1;
#X msg 164 781 loopsize \$1;
#X msg 214 751 loop \$1;
#X floatatom 89 191 3 -36 36 2 - #1-pitchlo -, f 3;
#X floatatom 89 161 3 -36 36 2 - #1-pitchhi -, f 3;
#X obj 43 146 vradio 15 0 0 4 empty \$1-pitchtracker empty 0 -8 0 10
#fcfcfc #000000 #000000 0;
#X text 61 146 off;
#X text 61 160 on;
#X text 61 175 trbl;
#X text 61 192 bass;
#X msg 43 701 pitchtracker \$1;
#X msg 89 781 pitchhi \$1;
#X msg 89 801 pitchlo \$1;
#X text 87 146 hi;
#X text 87 175 lo;
#X msg 290 462 latch \$1;
#X floatatom 117 122 6 0 1 2 wmin #1-wmin -, f 6;
#X floatatom 164 122 6 0 1 2 wmax #1-wmax -, f 6;
#X msg 117 521 wmin \$1;
#X msg 164 521 wmax \$1;
#X obj 287 22 tgl 15 0 empty \$1-bypass B -10 6 0 10 #fc5858 #000000
#000000 0 1;
#X msg 438 462 bypass \$1;
#X obj 193 157 tgl 15 0 empty empty empty 17 7 0 10 #fcfcfc #000000
#000000 0 1;
#X floatatom 164 363 6 1 16 2 - #1-meter-num -, f 6;
#X floatatom 211 363 6 1 16 0 - #1-meter-denom -, f 6;
#X floatatom 263 363 6 1 7 2 divis #1-division -, f 6;
#X msg 263 407 division \$1;
#X floatatom 263 330 6 30 960 2 tempo #1-tempo -, f 6;
#X msg 263 431 tempo \$1;
#X text 62 328 outside-in;
#X obj 380 200 loadbang;
#X obj 380 225 f \$1;
#X obj 214 122 hsl 64 15 0 1 0 0 empty \$1-gain gain -3 -12 0 10 #fcfcfc
#000000 #000000 6300 1;
#X msg 323 122 1;
#X obj 286 122 bng 15 250 50 0 empty empty empty 17 7 0 10 #fcfcfc
#000000 #000000;
#X msg 214 521 gain \$1;
#X msg 380 254 dump \$1;
#X text 370 150 This asks the raptor instance to send back the initial
parameter values., f 27;
#X symbolatom 42 363 18 0 0 2 preset #1-preset -, f 18;
#X msg 380 400 save \$1;
#X obj 80 346 bng 15 250 50 0 empty empty save 17 7 0 10 #fcfcfc #000000
#fc5858;
#X obj 380 360 symbol;
#X obj 440 360 symbol;
#X obj 380 330 t s s;
#X msg 440 402 preset \$1;
#X obj 126 346 bng 15 250 50 0 empty empty load 17 7 0 10 #fcfcfc #000000
#000000;
#X text 190 347 meter;
#X floatatom 82 213 4 -64 64 0 transp #1-transp -, f 4;
#X msg 82 612 transp \$1;
#X obj 40 20 bng 15 250 50 0 empty \$1-ccmaster empty 17 7 0 10 #fcfcfc
#202020 #202020;
#X obj 370 20 tgl 15 0 empty empty empty 17 7 0 10 #fcfcfc #000000
#000000 0 1;
#X obj 370 62 s all-arp;
#N canvas 790 341 450 300 ccmaster 0;
#X msg 130 106 color \$1 12 12;
#X obj 130 80 * 18;
#X obj 130 131 s \$1-ccmaster;
#X obj 20 50 pack f \$1;
#X msg 20 75 ccmaster \$1 \$2;
#X obj 20 20 inlet;
#X obj 20 100 outlet;
#X obj 130 20 r \$1-ccmaster-status;
#X msg 240 80 set \$1;
#X obj 240 105 outlet;
#X obj 130 45 t f f;
#X connect 0 0 2 0;
#X connect 1 0 0 0;
#X connect 3 0 4 0;
#X connect 4 0 6 0;
#X connect 5 0 3 0;
#X connect 7 0 10 0;
#X connect 8 0 9 0;
#X connect 10 0 1 0;
#X connect 10 1 8 0;
#X restore 370 40 pd ccmaster;
#X msg 164 407 meter-num \$1;
#X msg 164 431 meter-denom \$1;
#X connect 3 0 4 0;
#X connect 4 0 74 0;
#X connect 5 0 6 0;
#X connect 6 0 74 0;
#X connect 7 0 8 0;
#X connect 8 0 74 0;
#X connect 9 0 7 0;
#X connect 10 0 9 0;
#X connect 11 0 17 0;
#X connect 12 0 11 0;
#X connect 13 0 15 0;
#X connect 14 0 16 0;
#X connect 15 0 74 0;
#X connect 16 0 74 0;
#X connect 17 0 74 0;
#X connect 18 0 12 0;
#X connect 19 0 20 0;
#X connect 20 0 74 0;
#X connect 21 0 23 0;
#X connect 22 0 21 0;
#X connect 23 0 74 0;
#X connect 24 0 22 0;
#X connect 25 0 97 0;
#X connect 26 0 27 0;
#X connect 27 0 74 0;
#X connect 28 0 49 0;
#X connect 29 0 28 0;
#X connect 30 0 47 0;
#X connect 31 0 48 0;
#X connect 32 0 29 0;
#X connect 33 0 51 0;
#X connect 34 0 33 0;
#X connect 35 0 50 0;
#X connect 36 0 34 0;
#X connect 37 0 54 0;
#X connect 38 0 37 0;
#X connect 39 0 52 0;
#X connect 40 0 53 0;
#X connect 41 0 38 0;
#X connect 42 0 57 0;
#X connect 43 0 42 0;
#X connect 44 0 56 0;
#X connect 45 0 43 0;
#X connect 46 0 55 0;
#X connect 47 0 74 0;
#X connect 48 0 74 0;
#X connect 49 0 74 0;
#X connect 50 0 74 0;
#X connect 51 0 74 0;
#X connect 52 0 74 0;
#X connect 53 0 74 0;
#X connect 54 0 74 0;
#X connect 55 0 74 0;
#X connect 56 0 74 0;
#X connect 57 0 74 0;
#X connect 58 0 60 0;
#X connect 59 0 60 1;
#X connect 66 0 72 0;
#X connect 73 0 75 0;
#X connect 75 0 74 0;
#X connect 76 0 77 0;
#X connect 77 0 74 0;
#X connect 78 0 72 1;
#X connect 79 0 80 0;
#X connect 80 0 74 0;
#X connect 81 0 83 0;
#X connect 82 0 84 0;
#X connect 83 0 74 0;
#X connect 84 0 74 0;
#X connect 85 0 94 0;
#X connect 86 0 93 0;
#X connect 87 0 92 0;
#X connect 92 0 74 0;
#X connect 93 0 74 0;
#X connect 94 0 74 0;
#X connect 97 0 74 0;
#X connect 98 0 100 0;
#X connect 99 0 101 0;
#X connect 100 0 74 0;
#X connect 101 0 74 0;
#X connect 102 0 103 0;
#X connect 103 0 74 0;
#X connect 104 0 19 0;
#X connect 105 0 135 0;
#X connect 106 0 136 0;
#X connect 107 0 108 0;
#X connect 108 0 74 0;
#X connect 109 0 110 0;
#X connect 110 0 74 0;
#X connect 112 0 113 0;
#X connect 113 0 118 0;
#X connect 114 0 117 0;
#X connect 115 0 114 0;
#X connect 116 0 115 0;
#X connect 117 0 74 0;
#X connect 118 0 74 0;
#X connect 120 0 125 0;
#X connect 121 0 74 0;
#X connect 122 0 123 0;
#X connect 123 0 121 0;
#X connect 124 0 126 0;
#X connect 125 0 123 1;
#X connect 125 1 124 1;
#X connect 126 0 74 0;
#X connect 127 0 124 0;
#X connect 129 0 130 0;
#X connect 130 0 74 0;
#X connect 131 0 132 0;
#X connect 132 0 134 0;
#X connect 134 0 133 0;
#X connect 134 1 132 0;
#X connect 135 0 74 0;
#X connect 136 0 74 0;
#X coords 0 -1 1 1 275 371 2 32 15;
